<svg width="96" height="96" viewBox="0 0 96 96" fill="none" xmlns="http://www.w3.org/2000/svg">
<g clip-path="url(#clip0)">
<path d="M87.8495 57.4827C87.0733 55.5629 84.8874 54.635 82.9674 55.4116C81.0472 56.1878 80.1198 58.3735 80.8961 60.2937L85.3126 71.2186L72.1955 65.4362C71.246 65.0177 70.1655 65.0112 69.2111 65.4184C64.7284 67.3311 59.9261 68.3009 54.9379 68.3009C34.8617 68.3009 21.3754 52.5818 21.3754 37.9004C21.3754 21.1376 36.4315 7.49999 54.9379 7.49999C73.4443 7.49999 88.5003 21.1376 88.5003 37.9004C88.5003 39.2082 88.3784 40.7742 88.1664 42.1966C87.8608 44.245 89.2736 46.1532 91.322 46.4588C93.3706 46.7652 95.2788 45.3517 95.5842 43.3032C95.8526 41.5051 96.0003 39.5862 96.0003 37.9004C96.0003 27.7136 91.6867 18.1552 83.8535 10.9862C76.1131 3.90168 65.844 0 54.9379 0C44.0318 0 33.7628 3.90168 26.0222 10.986C19.0225 17.3925 14.836 25.7077 14.0239 34.6737C5.21951 40.5042 0.00046072 49.8472 0.00046072 59.9108C0.00046072 66.1973 1.98102 72.1621 5.75108 77.2952L0.273835 90.8443C-0.298226 92.2592 0.0443356 93.8798 1.14027 94.9421C1.85446 95.6348 2.79552 96 3.7512 96C4.26177 95.9998 4.77664 95.8958 5.26301 95.6813L21.0559 88.7194C25.0287 90.1982 29.2281 90.9469 33.5627 90.9469C33.6565 90.9469 33.7485 90.9396 33.8406 90.9328C40.11 90.8854 46.2051 89.2363 51.4839 86.1503C56.2123 83.3858 60.1018 79.5882 62.8286 75.1034C65.4909 74.6252 68.093 73.903 70.6187 72.9375L90.7376 81.8063C91.2241 82.0206 91.7388 82.125 92.2494 82.125C93.2051 82.1248 94.1463 81.7596 94.8605 81.0672C95.9564 80.0048 96.299 78.3844 95.7269 76.9694L87.8495 57.4827ZM33.5631 83.4373C33.5119 83.4373 33.462 83.443 33.4112 83.445C29.5821 83.4255 25.8966 82.6729 22.4547 81.2044C21.5005 80.797 20.4199 80.8035 19.4704 81.2222L10.6885 85.0933L13.5214 78.0855C14.0451 76.7901 13.8049 75.3107 12.8986 74.2474C9.36701 70.1042 7.50045 65.1469 7.50045 59.9108C7.50045 53.9181 10.0214 48.2401 14.4321 43.9347C15.8054 51.4207 19.6801 58.5816 25.525 64.207C32.7983 71.2069 42.4189 75.2622 52.8073 75.7504C47.9301 80.5513 40.9506 83.4373 33.5631 83.4373Z" fill="url(#paint0_linear)"/>
<path d="M54.7501 41.8124C56.8212 41.8124 58.5001 40.1335 58.5001 38.0624C58.5001 35.9914 56.8212 34.3124 54.7501 34.3124C52.679 34.3124 51.0001 35.9914 51.0001 38.0624C51.0001 40.1335 52.679 41.8124 54.7501 41.8124Z" fill="url(#paint1_linear)"/>
<path d="M69.7501 41.8124C71.8211 41.8124 73.5 40.1335 73.5 38.0624C73.5 35.9914 71.8211 34.3124 69.7501 34.3124C67.679 34.3124 66.0001 35.9914 66.0001 38.0624C66.0001 40.1335 67.679 41.8124 69.7501 41.8124Z" fill="url(#paint2_linear)"/>
<path d="M39.7501 41.8124C41.8212 41.8124 43.5001 40.1335 43.5001 38.0624C43.5001 35.9914 41.8212 34.3124 39.7501 34.3124C37.679 34.3124 36.0001 35.9914 36.0001 38.0624C36.0001 40.1335 37.679 41.8124 39.7501 41.8124Z" fill="url(#paint3_linear)"/>
</g>
<defs>
<linearGradient id="paint0_linear" x1="48.0004" y1="0" x2="48.0004" y2="96" gradientUnits="userSpaceOnUse">
<stop stop-color="#FF9250"/>
<stop offset="1" stop-color="#FFA873"/>
</linearGradient>
<linearGradient id="paint1_linear" x1="54.7501" y1="34.3124" x2="54.7501" y2="41.8124" gradientUnits="userSpaceOnUse">
<stop stop-color="#FF9250"/>
<stop offset="1" stop-color="#FFA873"/>
</linearGradient>
<linearGradient id="paint2_linear" x1="69.7501" y1="34.3124" x2="69.7501" y2="41.8124" gradientUnits="userSpaceOnUse">
<stop stop-color="#FF9250"/>
<stop offset="1" stop-color="#FFA873"/>
</linearGradient>
<linearGradient id="paint3_linear" x1="39.7501" y1="34.3124" x2="39.7501" y2="41.8124" gradientUnits="userSpaceOnUse">
<stop stop-color="#FF9250"/>
<stop offset="1" stop-color="#FFA873"/>
</linearGradient>
<clipPath id="clip0">
<rect width="96" height="96" fill="white"/>
</clipPath>
</defs>
</svg>
