<svg width="62" height="46" viewBox="0 0 62 46" fill="none" xmlns="http://www.w3.org/2000/svg">
<path d="M13.7369 45.7C10.0249 45.7 6.8929 44.424 4.3409 41.872C1.7889 39.204 0.512896 35.434 0.512896 30.562C0.512896 24.182 2.1369 18.324 5.3849 12.988C8.6329 7.53599 12.8089 3.24399 17.9129 0.111998L22.9589 2.722C20.8709 4.57799 18.7829 7.24599 16.6949 10.726C14.6069 14.206 13.4469 17.918 13.2149 21.862C16.6949 22.094 19.5949 23.254 21.9149 25.342C24.2349 27.43 25.3949 30.098 25.3949 33.346C25.3949 37.058 24.2349 40.074 21.9149 42.394C19.7109 44.598 16.9849 45.7 13.7369 45.7ZM50.1029 45.7C46.5069 45.7 43.4329 44.424 40.8809 41.872C38.3289 39.204 37.0529 35.434 37.0529 30.562C37.0529 24.182 38.6189 18.324 41.7509 12.988C44.9989 7.53599 49.1749 3.24399 54.2789 0.111998L59.3249 2.722C53.4089 8.058 50.2189 14.438 49.7549 21.862C53.1189 22.094 55.9609 23.254 58.2809 25.342C60.7169 27.43 61.9349 30.098 61.9349 33.346C61.9349 37.058 60.7749 40.074 58.4549 42.394C56.1349 44.598 53.3509 45.7 50.1029 45.7Z" fill="#FF9250"/>
</svg>
