<svg width="18" height="22" viewBox="0 0 18 22" fill="none" xmlns="http://www.w3.org/2000/svg">
<path d="M11.9742 7.9707C11.6896 7.9707 11.459 8.20135 11.459 8.48593V18.2236C11.459 18.508 11.6896 18.7389 11.9742 18.7389C12.2588 18.7389 12.4894 18.508 12.4894 18.2236V8.48593C12.4894 8.20135 12.2588 7.9707 11.9742 7.9707Z" fill="#F44444"/>
<path d="M5.89413 7.9707C5.60955 7.9707 5.37891 8.20135 5.37891 8.48593V18.2236C5.37891 18.508 5.60955 18.7389 5.89413 18.7389C6.17871 18.7389 6.40935 18.508 6.40935 18.2236V8.48593C6.40935 8.20135 6.17871 7.9707 5.89413 7.9707Z" fill="#F44444"/>
<path d="M1.46331 6.54961V19.2436C1.46331 19.9939 1.73843 20.6985 2.21904 21.204C2.69743 21.711 3.36319 21.9988 4.05994 22H13.8081C14.505 21.9988 15.1708 21.711 15.649 21.204C16.1296 20.6985 16.4047 19.9939 16.4047 19.2436V6.54961C17.3601 6.29603 17.9792 5.37306 17.8514 4.39273C17.7234 3.4126 16.8883 2.67942 15.8998 2.67922H13.2619V2.03519C13.2649 1.4936 13.0508 0.973554 12.6674 0.590962C12.284 0.208571 11.7631 -0.00435998 11.2215 6.76958e-05H6.64651C6.10493 -0.00435998 5.58407 0.208571 5.20068 0.590962C4.81728 0.973554 4.60314 1.4936 4.60616 2.03519V2.67922H1.96827C0.979688 2.67942 0.144668 3.4126 0.0166677 4.39273C-0.111131 5.37306 0.507939 6.29603 1.46331 6.54961ZM13.8081 20.9696H4.05994C3.17904 20.9696 2.49375 20.2128 2.49375 19.2436V6.5949H15.3743V19.2436C15.3743 20.2128 14.689 20.9696 13.8081 20.9696ZM5.6366 2.03519C5.63318 1.76691 5.73864 1.5087 5.92903 1.31932C6.11922 1.12993 6.37804 1.02588 6.64651 1.03051H11.2215C11.49 1.02588 11.7488 1.12993 11.939 1.31932C12.1294 1.5085 12.2349 1.76691 12.2314 2.03519V2.67922H5.6366V2.03519ZM1.96827 3.70966H15.8998C16.412 3.70966 16.8272 4.12485 16.8272 4.63706C16.8272 5.14926 16.412 5.56445 15.8998 5.56445H1.96827C1.45607 5.56445 1.04087 5.14926 1.04087 4.63706C1.04087 4.12485 1.45607 3.70966 1.96827 3.70966Z" fill="#F44444"/>
<path d="M8.93416 7.9707C8.64959 7.9707 8.41895 8.20135 8.41895 8.48593V18.2236C8.41895 18.508 8.64959 18.7389 8.93416 18.7389C9.21874 18.7389 9.44938 18.508 9.44938 18.2236V8.48593C9.44938 8.20135 9.21874 7.9707 8.93416 7.9707Z" fill="#F44444"/>
</svg>
