<svg width="10" height="10" viewBox="0 0 10 10" fill="none" xmlns="http://www.w3.org/2000/svg">
<g clip-path="url(#clip0)">
<path d="M9.21393 2.43219L8.91323 2.12939C8.81859 2.03483 8.69268 1.98274 8.55812 1.98274C8.42362 1.98274 8.29757 2.03483 8.20293 2.12939L4.77272 5.55975L1.33855 2.12559C1.24406 2.03102 1.118 1.979 0.98351 1.979C0.849018 1.979 0.722886 2.03102 0.628323 2.12559L0.327545 2.42651C0.131704 2.62221 0.131704 2.94097 0.327545 3.13666L4.41634 7.24016C4.51082 7.33464 4.63673 7.40122 4.77242 7.40122H4.77399C4.90855 7.40122 5.03446 7.33457 5.12895 7.24016L9.21393 3.14778C9.30857 3.0533 9.36051 2.92358 9.36066 2.78909C9.36066 2.65452 9.30857 2.5266 9.21393 2.43219Z" fill="#FF9250"/>
</g>
<defs>
<clipPath id="clip0">
<rect width="9.18" height="9.18" fill="white" transform="translate(0.180664 0.100098)"/>
</clipPath>
</defs>
</svg>
