<svg width="104" height="104" viewBox="0 0 104 104" fill="none" xmlns="http://www.w3.org/2000/svg">
<g clip-path="url(#clip0)">
<path d="M65.407 0.00164795C58.1128 0.00164795 51.008 2.0491 44.861 5.92241C43.9118 6.5206 43.6272 7.77467 44.2254 8.72385C44.8234 9.67324 46.0779 9.95781 47.0269 9.35942C52.5247 5.89519 58.8806 4.06406 65.4072 4.06406C84.4474 4.06406 99.9377 19.5544 99.9377 38.5946C99.9377 57.6347 84.4474 73.1251 65.4072 73.1251C46.3671 73.1251 30.8767 57.6347 30.8767 38.5946C30.8767 32.0669 32.7079 25.711 36.1723 20.2144C36.7705 19.2652 36.4859 18.0109 35.5369 17.4129C34.5879 16.8146 33.3335 17.0991 32.7355 18.0483C28.8618 24.1947 26.8143 31.2993 26.8143 38.5946C26.8143 47.0403 29.5434 54.8594 34.163 61.221L30.6892 64.6948C28.4247 63.616 25.6273 64.0117 23.7551 65.8838L1.78173 87.857C-0.593971 90.2329 -0.594174 94.0987 1.78173 96.4748L7.52679 102.22C8.67463 103.368 10.2049 104 11.8356 104C13.4664 104 14.9968 103.368 16.1444 102.22L38.1174 80.2469C39.265 79.0991 39.8973 77.5687 39.8973 75.9379C39.8973 75.0127 39.6934 74.1202 39.3079 73.3113L42.7804 69.8386C49.1419 74.4584 56.9611 77.1873 65.4068 77.1873C86.6872 77.1873 104 59.8747 104 38.5944C104 17.314 86.6874 0.00164795 65.407 0.00164795ZM35.245 77.3744L13.2721 99.3471C12.8916 99.7276 12.3816 99.9372 11.8358 99.9372C11.29 99.9372 10.78 99.7276 10.3995 99.3471L4.65446 93.6021C3.8625 92.8103 3.8625 91.5215 4.65446 90.7295L26.6274 68.7564C27.0233 68.3605 27.5433 68.1624 28.0635 68.1624C28.5837 68.1624 29.1039 68.3605 29.4998 68.7564L35.245 74.5016C35.6255 74.8821 35.8349 75.3921 35.8349 75.9377C35.8349 76.4833 35.6257 76.9937 35.245 77.3744ZM36.6813 70.1928L33.8088 67.3201L36.7329 64.396C37.6398 65.4028 38.5986 66.3616 39.6054 67.2685L36.6813 70.1928Z" fill="url(#paint0_linear)"/>
<path d="M89.4582 53.908C90.4439 54.4424 91.6773 54.0761 92.2117 53.09C94.6085 48.667 95.8752 43.6542 95.8752 38.5939C95.8752 21.7938 82.2072 8.12579 65.4071 8.12579C48.607 8.12579 34.939 21.7938 34.939 38.5939C34.939 55.394 48.607 69.062 65.4071 69.062C70.4678 69.062 75.4806 67.7951 79.9032 65.3983C80.8893 64.8637 81.2558 63.6309 80.7212 62.6446C80.1868 61.6582 78.9532 61.2924 77.9675 61.8266C74.1372 63.9025 69.7939 64.9996 65.4069 64.9996C50.8468 64.9996 39.0012 53.1542 39.0012 38.5939C39.0012 24.0336 50.8468 12.1882 65.4069 12.1882C79.9672 12.1882 91.8126 24.0336 91.8126 38.5939C91.8126 42.9805 90.7155 47.3238 88.6398 51.1545C88.1054 52.1408 88.4718 53.3735 89.4582 53.908Z" fill="url(#paint1_linear)"/>
<path d="M39.5545 14.7716C40.0422 14.7716 40.5318 14.5971 40.9209 14.2431C41.7509 13.4885 41.8123 12.2039 41.0576 11.3737C40.3028 10.5436 39.0183 10.4826 38.1883 11.237L38.1873 11.2381C37.3573 11.9927 37.2966 13.2768 38.0512 14.107C38.452 14.548 39.0022 14.7716 39.5545 14.7716Z" fill="url(#paint2_linear)"/>
<path d="M85.5161 60.7327C85.9747 60.7327 86.4362 60.5781 86.8158 60.2619C87.6777 59.5436 87.7941 58.2627 87.076 57.4011C86.3574 56.539 85.0767 56.423 84.2152 57.1408L84.214 57.1419C83.3522 57.8601 83.2364 59.1404 83.9544 60.0023C84.3562 60.4841 84.9341 60.7327 85.5161 60.7327Z" fill="url(#paint3_linear)"/>
<path d="M86.6811 39.7681C87.1796 39.0645 87.1796 38.1231 86.6811 37.4194C82.2661 31.1879 74.1145 27.3168 65.4073 27.3168C56.7001 27.3168 48.5483 31.1881 44.1332 37.4194C43.6348 38.1231 43.6348 39.0645 44.1332 39.7681C48.5483 45.9997 56.7001 49.8705 65.4073 49.8705C74.1145 49.8705 82.2661 45.9997 86.6811 39.7681ZM72.6217 38.5937C72.6217 42.5718 69.3852 45.8083 65.4071 45.8083C61.4292 45.8083 58.1926 42.5718 58.1926 38.5937C58.1926 34.6158 61.4292 31.3792 65.4071 31.3792C69.3852 31.3792 72.6217 34.6158 72.6217 38.5937ZM48.363 38.5939C50.1897 36.455 52.5993 34.7157 55.3613 33.4805C54.5763 35.0165 54.1304 36.7536 54.1304 38.5937C54.1304 40.434 54.5765 42.171 55.3615 43.7072C52.5993 42.4721 50.1897 40.7327 48.363 38.5939ZM75.453 43.707C76.2381 42.1708 76.6841 40.434 76.6841 38.5935C76.6841 36.7534 76.2383 35.0163 75.4532 33.4803C78.2151 34.7155 80.6247 36.4548 82.4513 38.5937C80.6245 40.7327 78.2151 42.4719 75.453 43.707Z" fill="url(#paint4_linear)"/>
<path d="M65.4063 40.6252H65.4079C66.5296 40.6252 67.4384 39.7157 67.4384 38.594C67.4384 37.4723 66.5282 36.5627 65.4063 36.5627C64.2845 36.5627 63.3751 37.4723 63.3751 38.594C63.3751 39.7157 64.2847 40.6252 65.4063 40.6252Z" fill="url(#paint5_linear)"/>
</g>
<defs>
<linearGradient id="paint0_linear" x1="51.9998" y1="0.00164795" x2="51.9998" y2="104" gradientUnits="userSpaceOnUse">
<stop stop-color="#FF9250"/>
<stop offset="1" stop-color="#FFA873"/>
</linearGradient>
<linearGradient id="paint1_linear" x1="65.4071" y1="8.12579" x2="65.4071" y2="69.062" gradientUnits="userSpaceOnUse">
<stop stop-color="#FF9250"/>
<stop offset="1" stop-color="#FFA873"/>
</linearGradient>
<linearGradient id="paint2_linear" x1="39.5543" y1="10.7089" x2="39.5543" y2="14.7716" gradientUnits="userSpaceOnUse">
<stop stop-color="#FF9250"/>
<stop offset="1" stop-color="#FFA873"/>
</linearGradient>
<linearGradient id="paint3_linear" x1="85.5151" y1="56.6701" x2="85.5151" y2="60.7327" gradientUnits="userSpaceOnUse">
<stop stop-color="#FF9250"/>
<stop offset="1" stop-color="#FFA873"/>
</linearGradient>
<linearGradient id="paint4_linear" x1="65.4072" y1="27.3168" x2="65.4072" y2="49.8705" gradientUnits="userSpaceOnUse">
<stop stop-color="#FF9250"/>
<stop offset="1" stop-color="#FFA873"/>
</linearGradient>
<linearGradient id="paint5_linear" x1="65.4067" y1="36.5627" x2="65.4067" y2="40.6252" gradientUnits="userSpaceOnUse">
<stop stop-color="#FF9250"/>
<stop offset="1" stop-color="#FFA873"/>
</linearGradient>
<clipPath id="clip0">
<rect width="104" height="104" fill="white"/>
</clipPath>
</defs>
</svg>
