<svg width="100" height="100" viewBox="0 0 100 100" fill="none" xmlns="http://www.w3.org/2000/svg">
<path d="M88.8297 6.47148H87.0588V4.70059C87.0588 2.10859 84.9502 0 82.3582 0C79.7662 0 77.6576 2.10859 77.6576 4.70059V6.47148H70.8803V4.70059C70.8805 2.10859 68.7717 0 66.1799 0C63.5881 0 61.4793 2.10859 61.4793 4.70059V6.47148H54.7019V4.70059C54.7019 2.10859 52.5934 0 50.0014 0C47.4094 0 45.3008 2.10859 45.3008 4.70059V6.47148H38.5234V4.70059C38.5236 2.10859 36.4148 0 33.823 0C31.231 0 29.1225 2.10859 29.1225 4.70059V6.47148H27.3514C22.9754 6.47148 19.4154 10.0316 19.4154 14.4074V50.2545L15.8322 46.6713C13.9994 44.8385 11.0174 44.8387 9.18456 46.6713L4.60859 51.2473C2.77578 53.0799 2.77578 56.0621 4.60859 57.8947L19.4152 72.7014V92.0639C19.4152 96.4398 22.9754 100 27.3512 100H77.1824C77.9914 100 78.6473 99.3441 78.6473 98.5352C78.6473 97.7262 77.9914 97.0703 77.1824 97.0703H27.3514C24.5908 97.0703 22.3451 94.8244 22.3451 92.0639V75.6311L34.2951 87.5811C34.3299 87.6158 34.3662 87.6486 34.4039 87.6793C34.4295 87.7002 34.456 87.7188 34.4826 87.7377C34.4951 87.7465 34.5068 87.7564 34.5195 87.7648C34.5531 87.7873 34.5877 87.8072 34.6227 87.8266C34.6293 87.8303 34.6355 87.8346 34.6422 87.8381C34.6791 87.8578 34.7168 87.875 34.7547 87.8912C34.7603 87.8936 34.7656 87.8967 34.7715 87.899C34.8084 87.9143 34.8459 87.9271 34.8836 87.9393C34.8914 87.9418 34.8988 87.9449 34.9066 87.9473C34.9422 87.958 34.9781 87.9664 35.0141 87.9742C35.0248 87.9766 35.0351 87.9799 35.0459 87.982C35.0809 87.9889 35.116 87.9934 35.1514 87.9977C35.1637 87.9992 35.1756 88.0018 35.1879 88.0029C35.2353 88.0076 35.2832 88.01 35.3309 88.01H43.876L45.735 89.8689C46.0209 90.1549 46.3959 90.298 46.7707 90.298C47.1455 90.298 47.5205 90.1549 47.8064 89.8689C48.3785 89.2969 48.3785 88.3693 47.8064 87.7973L45.9475 85.9385V77.3938C45.9475 77.3457 45.9451 77.2978 45.9404 77.25C45.9394 77.2395 45.9371 77.2293 45.9359 77.2187C45.9314 77.1816 45.9266 77.1447 45.9193 77.108C45.9174 77.0986 45.9146 77.0895 45.9125 77.0801C45.9043 77.0428 45.8955 77.0055 45.8846 76.9687C45.8826 76.9621 45.8799 76.9559 45.8777 76.9492C45.8654 76.9104 45.8519 76.8717 45.8363 76.8336C45.8346 76.8295 45.8324 76.8256 45.8307 76.8215C45.8139 76.7818 45.7957 76.7426 45.7754 76.7043C45.7726 76.6992 45.7695 76.6947 45.7668 76.6896C45.7467 76.6529 45.7256 76.6168 45.7021 76.5816C45.6949 76.5707 45.6863 76.5605 45.6787 76.5498C45.6588 76.5215 45.6389 76.4932 45.6168 76.466C45.5859 76.4283 45.5533 76.392 45.5185 76.3572L33.5684 64.407H83.976C84.785 64.407 85.4408 63.7512 85.4408 62.9422C85.4408 62.1332 84.785 61.4773 83.976 61.4773H32.2051C31.7748 61.4773 31.3889 61.6641 31.1209 61.9596L22.3449 53.1836V25.5795H93.8359V35.5699C93.8359 36.3789 94.4918 37.0348 95.3008 37.0348C96.1098 37.0348 96.7656 36.3789 96.7656 35.5699V14.4074C96.7658 10.0314 93.2057 6.47148 88.8297 6.47148V6.47148ZM43.018 85.0805H38.8674L43.018 80.9299V85.0805ZM12.292 61.435L14.7965 58.9307L37.8353 81.9695L35.331 84.4738L12.292 61.435ZM39.9068 79.8979L16.868 56.859L19.3725 54.3547L42.4113 77.3936L39.9068 79.8979ZM6.68027 53.3189L11.2562 48.743C11.9467 48.0525 13.0703 48.0523 13.7607 48.743L17.301 52.2832L10.2205 59.3633L6.68046 55.8232C5.98984 55.1328 5.98984 54.0094 6.68027 53.3189V53.3189ZM82.3582 2.92969C83.3348 2.92969 84.1291 3.72402 84.1291 4.70059V11.1719C84.1291 12.1484 83.3348 12.9428 82.3582 12.9428C81.3816 12.9428 80.5873 12.1484 80.5873 11.1719V7.93828C80.5873 7.9377 80.5873 7.93711 80.5873 7.93633C80.5873 7.93555 80.5873 7.93516 80.5873 7.93438V4.70059C80.5875 3.72402 81.3818 2.92969 82.3582 2.92969V2.92969ZM66.1799 2.92969C67.1564 2.92969 67.9508 3.72402 67.9508 4.70059V11.1719C67.9508 12.1484 67.1564 12.9428 66.1799 12.9428C65.2033 12.9428 64.409 12.1484 64.409 11.1719V7.93828C64.409 7.9377 64.409 7.93711 64.409 7.93633C64.409 7.93555 64.409 7.93516 64.409 7.93438V4.70059C64.409 3.72402 65.2033 2.92969 66.1799 2.92969V2.92969ZM48.2307 4.70059C48.2307 3.72402 49.025 2.92969 50.0016 2.92969C50.9781 2.92969 51.7725 3.72402 51.7725 4.70059V7.93438V7.93633C51.7725 7.93633 51.7725 7.9375 51.7725 7.93828V11.1719C51.7725 12.1484 50.9781 12.9428 50.0016 12.9428C49.0252 12.9428 48.2307 12.1484 48.2307 11.1719V4.70059ZM33.823 2.92969C34.7994 2.92969 35.5939 3.72402 35.5939 4.70059V11.1719C35.5939 12.1484 34.7996 12.9428 33.823 12.9428C32.8465 12.9428 32.0521 12.1484 32.0521 11.1719V4.70059C32.0521 3.72402 32.8465 2.92969 33.823 2.92969V2.92969ZM22.3451 22.6498V14.4074C22.3451 11.6469 24.591 9.40117 27.3514 9.40117H29.1225V11.1719C29.1225 13.7639 31.231 15.8725 33.823 15.8725C36.4148 15.8725 38.5236 13.7639 38.5236 11.1719V9.40117H45.301V11.1719C45.301 13.7639 47.4096 15.8725 50.0016 15.8725C52.5935 15.8725 54.7021 13.7639 54.7021 11.1719V9.40117H61.4795V11.1719C61.4795 13.7639 63.5881 15.8725 66.1801 15.8725C68.7721 15.8725 70.8807 13.7639 70.8807 11.1719V9.40117H77.658V11.1719C77.658 13.7639 79.7666 15.8725 82.3586 15.8725C84.9506 15.8725 87.0592 13.7639 87.0592 11.1719V9.40117H88.8301C91.5906 9.40117 93.8365 11.6471 93.8365 14.4074V22.6498H22.3451Z" fill="url(#paint0_linear)"/>
<path d="M95.301 39.9646C94.492 39.9646 93.8361 40.6205 93.8361 41.4294V92.0638C93.8361 94.8244 91.5902 97.0703 88.8297 97.0703H83.0418C82.2328 97.0703 81.577 97.7261 81.577 98.5351C81.577 99.3441 82.2328 100 83.0418 100H88.8297C93.2057 100 96.7658 96.4398 96.7658 92.0638V41.4294C96.7658 40.6205 96.11 39.9646 95.301 39.9646V39.9646Z" fill="url(#paint1_linear)"/>
<path d="M32.2051 35.2866H83.976C84.785 35.2866 85.4408 34.6307 85.4408 33.8217C85.4408 33.0127 84.785 32.3569 83.976 32.3569H32.2051C31.3961 32.3569 30.7402 33.0127 30.7402 33.8217C30.7402 34.6307 31.3961 35.2866 32.2051 35.2866Z" fill="url(#paint2_linear)"/>
<path d="M32.2051 44.9935H83.976C84.785 44.9935 85.4408 44.3377 85.4408 43.5287C85.4408 42.7197 84.785 42.0638 83.976 42.0638H32.2051C31.3961 42.0638 30.7402 42.7197 30.7402 43.5287C30.7402 44.3377 31.3961 44.9935 32.2051 44.9935Z" fill="url(#paint3_linear)"/>
<path d="M32.2051 54.7006H83.976C84.785 54.7006 85.4408 54.0447 85.4408 53.2357C85.4408 52.4267 84.785 51.7709 83.976 51.7709H32.2051C31.3961 51.7709 30.7402 52.4267 30.7402 53.2357C30.7402 54.0447 31.3961 54.7006 32.2051 54.7006Z" fill="url(#paint4_linear)"/>
<path d="M85.441 72.6498C85.441 71.8408 84.7851 71.1849 83.9762 71.1849H50.0016C49.1926 71.1849 48.5367 71.8408 48.5367 72.6498C48.5367 73.4588 49.1926 74.1146 50.0016 74.1146H83.9762C84.7851 74.1146 85.441 73.4588 85.441 72.6498Z" fill="url(#paint5_linear)"/>
<defs>
<linearGradient id="paint0_linear" x1="49.9998" y1="0" x2="49.9998" y2="100" gradientUnits="userSpaceOnUse">
<stop stop-color="#FF9250"/>
<stop offset="1" stop-color="#FFA873"/>
</linearGradient>
<linearGradient id="paint1_linear" x1="89.1714" y1="39.9646" x2="89.1714" y2="100" gradientUnits="userSpaceOnUse">
<stop stop-color="#FF9250"/>
<stop offset="1" stop-color="#FFA873"/>
</linearGradient>
<linearGradient id="paint2_linear" x1="58.0905" y1="32.3569" x2="58.0905" y2="35.2866" gradientUnits="userSpaceOnUse">
<stop stop-color="#FF9250"/>
<stop offset="1" stop-color="#FFA873"/>
</linearGradient>
<linearGradient id="paint3_linear" x1="58.0905" y1="42.0638" x2="58.0905" y2="44.9935" gradientUnits="userSpaceOnUse">
<stop stop-color="#FF9250"/>
<stop offset="1" stop-color="#FFA873"/>
</linearGradient>
<linearGradient id="paint4_linear" x1="58.0905" y1="51.7709" x2="58.0905" y2="54.7006" gradientUnits="userSpaceOnUse">
<stop stop-color="#FF9250"/>
<stop offset="1" stop-color="#FFA873"/>
</linearGradient>
<linearGradient id="paint5_linear" x1="66.9889" y1="71.1849" x2="66.9889" y2="74.1146" gradientUnits="userSpaceOnUse">
<stop stop-color="#FF9250"/>
<stop offset="1" stop-color="#FFA873"/>
</linearGradient>
</defs>
</svg>
