<svg width="17" height="23" viewBox="0 0 17 23" fill="none" xmlns="http://www.w3.org/2000/svg">
<path d="M2.125 8.625H2.83333V5.75C2.83333 2.57887 5.37483 0 8.5 0C11.6252 0 14.1667 2.57887 14.1667 5.75V8.625H14.875C16.0461 8.625 17 9.59196 17 10.7812V20.8438C17 22.033 16.0461 23 14.875 23H2.125C0.95389 23 0 22.033 0 20.8438V10.7812C0 9.59196 0.95389 8.625 2.125 8.625ZM12.2778 5.75C12.2778 3.63592 10.5834 1.91667 8.5 1.91667C6.41656 1.91667 4.72222 3.63592 4.72222 5.75V8.625H12.2778V5.75ZM7.55556 16.0252V18.2083C7.55556 18.7373 7.97772 19.1667 8.5 19.1667C9.02228 19.1667 9.44444 18.7373 9.44444 18.2083V16.0252C10.0064 15.6927 10.3889 15.0813 10.3889 14.375C10.3889 13.318 9.54172 12.4583 8.5 12.4583C7.45828 12.4583 6.61111 13.318 6.61111 14.375C6.61111 15.0813 6.99361 15.6927 7.55556 16.0252Z" fill="white"/>
</svg>
