<svg width="49" height="67" viewBox="0 0 49 67" fill="none" xmlns="http://www.w3.org/2000/svg">
<path d="M24.2649 0C10.8852 0 0 10.8852 0 24.2648C0 40.8693 21.7147 65.2456 22.6392 66.2752C23.5076 67.2424 25.0237 67.2407 25.8906 66.2752C26.8151 65.2456 48.5298 40.8693 48.5298 24.2648C48.5295 10.8852 37.6445 0 24.2649 0ZM24.2649 36.473C17.5332 36.473 12.0567 30.9964 12.0567 24.2648C12.0567 17.5331 17.5333 12.0566 24.2649 12.0566C30.9964 12.0566 36.4729 17.5332 36.4729 24.2649C36.4729 30.9966 30.9964 36.473 24.2649 36.473Z" fill="#009FE3"/>
</svg>
