<svg width="23" height="23" viewBox="0 0 23 23" fill="none" xmlns="http://www.w3.org/2000/svg">
<path d="M22.6324 10.6064L14.3263 2.30011C14.0892 2.06301 13.7731 1.93286 13.4362 1.93286C13.0989 1.93286 12.783 2.06319 12.5459 2.30011L11.7918 3.05443C11.5549 3.29116 11.4244 3.60736 11.4244 3.9445C11.4244 4.28146 11.5549 4.60832 11.7918 4.84505L16.6375 9.70137H1.24255C0.548443 9.70137 0 10.2448 0 10.9391V12.0055C0 12.6998 0.548443 13.2979 1.24255 13.2979H16.6924L11.792 18.1814C11.5551 18.4185 11.4245 18.7261 11.4245 19.0632C11.4245 19.4 11.5551 19.7121 11.792 19.949L12.5461 20.7009C12.7832 20.938 13.099 21.0672 13.4364 21.0672C13.7733 21.0672 14.0893 20.9363 14.3264 20.6992L22.6326 12.3931C22.8702 12.1552 23.0009 11.8377 23 11.5002C23.0007 11.1616 22.8702 10.8439 22.6324 10.6064Z" fill="white"/>
</svg>
