<svg width="109" height="109" viewBox="0 0 109 109" fill="none" xmlns="http://www.w3.org/2000/svg">
<g clip-path="url(#clip0)">
<path d="M108.103 13.757C108.038 13.6961 95.2347 1.48579 95.2347 1.48579C94.7453 1.01615 94.239 0.530762 93.2938 0.530762H41.7487C40.2432 0.530762 39.0182 1.75552 39.0182 3.26108V11.6454L20.8512 14.7595C19.395 15.015 18.4157 16.4086 18.668 17.8633L19.59 23.2392C13.6851 25.2263 7.62257 27.2747 1.76999 29.377C0.387054 29.8826 -0.338691 31.4203 0.15479 32.8116L11.7967 65.1744C12.0309 65.8256 12.6447 66.2312 13.2993 66.2312C13.4785 66.2312 13.6612 66.2007 13.8396 66.1364C14.6695 65.8379 15.1001 64.9234 14.8017 64.0935L3.33197 32.2093C8.84584 30.2352 14.556 28.303 20.1365 26.4247L25.6229 58.4104L31.936 95.2473C32.164 96.5476 33.307 97.4729 34.5971 97.4729C34.7431 97.4729 34.8913 97.4609 35.0399 97.4365L52.1384 94.5022L65.4994 92.2119L45.4045 99.4346L29.558 105.132L17.2512 70.9018C16.9529 70.0719 16.0386 69.6412 15.2085 69.9395C14.3787 70.2378 13.948 71.1523 14.2462 71.9822L26.7276 106.699C27.1268 107.791 28.161 108.47 29.2542 108.47C29.5563 108.47 29.863 108.418 30.1619 108.308L46.4845 102.44L83.5474 89.1184L90.628 87.9047H106.269C107.775 87.9047 109 86.6772 109 85.1682V15.5562C109 14.6005 108.481 14.113 108.103 13.757V13.757ZM103.873 14.1351H95.8828L95.6848 14.136C95.3022 14.1385 94.4066 14.1451 94.1794 13.9195C94.1271 13.8673 94.0657 13.6932 94.0657 13.3698L94.0472 4.7658L103.873 14.1351ZM105.807 84.7109H42.2115V53.5933C42.2115 52.7115 41.4967 51.9966 40.6149 51.9966C39.7331 51.9966 39.0182 52.7115 39.0182 53.5933V85.1678C39.0182 86.6765 40.2432 87.9043 41.7487 87.9043H71.7263L51.5985 91.3544L34.9969 94.2035L28.7703 57.8705L21.9005 17.8194L39.018 14.8851V46.1847C39.018 47.0665 39.7329 47.7814 40.6146 47.7814C41.4964 47.7814 42.2113 47.0665 42.2113 46.1847V3.72391H90.8515L90.8724 13.3734C90.8724 14.543 91.2281 15.4891 91.9296 16.1857C93.0075 17.2559 94.5311 17.3304 95.477 17.3304C95.5583 17.3304 95.6354 17.3297 95.7076 17.3293L105.807 17.3287V84.7109Z" fill="url(#paint0_linear)"/>
<path d="M49.908 25.3231C49.908 26.2049 50.6228 26.9198 51.5046 26.9198H97.1561C98.0378 26.9198 98.7527 26.2049 98.7527 25.3231C98.7527 24.4413 98.0378 23.7264 97.1561 23.7264H51.5046C50.6228 23.7264 49.908 24.4413 49.908 25.3231V25.3231Z" fill="url(#paint1_linear)"/>
<path d="M97.1561 35.0697H51.5046C50.6228 35.0697 49.908 35.7846 49.908 36.6664C49.908 37.5482 50.6228 38.2631 51.5046 38.2631H97.1561C98.0378 38.2631 98.7527 37.5482 98.7527 36.6664C98.7527 35.7846 98.0378 35.0697 97.1561 35.0697Z" fill="url(#paint2_linear)"/>
<path d="M97.1561 46.413H51.5046C50.6228 46.413 49.908 47.1279 49.908 48.0096C49.908 48.8914 50.6228 49.6063 51.5046 49.6063H97.1561C98.0378 49.6063 98.7527 48.8914 98.7527 48.0096C98.7527 47.1279 98.0378 46.413 97.1561 46.413Z" fill="url(#paint3_linear)"/>
<path d="M97.1561 57.7562H51.5046C50.6228 57.7562 49.908 58.471 49.908 59.3528C49.908 60.2346 50.6228 60.9495 51.5046 60.9495H97.1561C98.0378 60.9495 98.7527 60.2346 98.7527 59.3528C98.7527 58.471 98.0378 57.7562 97.1561 57.7562Z" fill="url(#paint4_linear)"/>
<path d="M97.1561 69.0996H51.5046C50.6228 69.0996 49.908 69.8145 49.908 70.6963C49.908 71.5781 50.6228 72.293 51.5046 72.293H97.1561C98.0378 72.293 98.7527 71.5781 98.7527 70.6963C98.7527 69.8145 98.0378 69.0996 97.1561 69.0996Z" fill="url(#paint5_linear)"/>
</g>
<defs>
<linearGradient id="paint0_linear" x1="54.4999" y1="0.530762" x2="54.4999" y2="108.47" gradientUnits="userSpaceOnUse">
<stop stop-color="#FF9250"/>
<stop offset="1" stop-color="#FFA873"/>
</linearGradient>
<linearGradient id="paint1_linear" x1="74.3303" y1="23.7264" x2="74.3303" y2="26.9198" gradientUnits="userSpaceOnUse">
<stop stop-color="#FF9250"/>
<stop offset="1" stop-color="#FFA873"/>
</linearGradient>
<linearGradient id="paint2_linear" x1="74.3303" y1="35.0697" x2="74.3303" y2="38.2631" gradientUnits="userSpaceOnUse">
<stop stop-color="#FF9250"/>
<stop offset="1" stop-color="#FFA873"/>
</linearGradient>
<linearGradient id="paint3_linear" x1="74.3303" y1="46.413" x2="74.3303" y2="49.6063" gradientUnits="userSpaceOnUse">
<stop stop-color="#FF9250"/>
<stop offset="1" stop-color="#FFA873"/>
</linearGradient>
<linearGradient id="paint4_linear" x1="74.3303" y1="57.7562" x2="74.3303" y2="60.9495" gradientUnits="userSpaceOnUse">
<stop stop-color="#FF9250"/>
<stop offset="1" stop-color="#FFA873"/>
</linearGradient>
<linearGradient id="paint5_linear" x1="74.3303" y1="69.0996" x2="74.3303" y2="72.293" gradientUnits="userSpaceOnUse">
<stop stop-color="#FF9250"/>
<stop offset="1" stop-color="#FFA873"/>
</linearGradient>
<clipPath id="clip0">
<rect width="109" height="109" fill="white"/>
</clipPath>
</defs>
</svg>
