<svg width="377" height="377" viewBox="0 0 377 377" fill="none" xmlns="http://www.w3.org/2000/svg">
<path d="M210.59 111.186H155.365V177.455H210.59C228.925 177.455 243.725 162.656 243.725 144.32C243.725 125.985 228.925 111.186 210.59 111.186Z" fill="#009FE3"/>
<path d="M188.5 0C84.9649 0 0 84.9649 0 188.5C0 292.035 84.9649 377 188.5 377C292.035 377 377 292.035 377 188.5C377 84.9649 292.035 0 188.5 0ZM210.59 221.635H155.365V309.994H111.186V67.0059H210.59C253.223 67.0059 287.904 101.687 287.904 144.32C287.904 186.954 253.223 221.635 210.59 221.635Z" fill="#009FE3"/>
</svg>
