<svg width="30" height="30" viewBox="0 0 30 30" fill="none" xmlns="http://www.w3.org/2000/svg">
<path d="M29.2941 11.5842L26.9884 11.0829C26.7879 10.4691 26.5395 9.8703 26.2463 9.29352L27.5228 7.30797C27.7508 6.9532 27.7007 6.48743 27.4026 6.18942L23.8106 2.59735C23.5126 2.29935 23.0468 2.24922 22.692 2.47719L20.7065 3.75366C20.1297 3.46046 19.5309 3.21213 18.9171 3.01163L18.4158 0.705872C18.3263 0.293884 17.9615 0 17.5399 0H12.4601C12.0385 0 11.6737 0.293884 11.5842 0.705872L11.0829 3.01163C10.4691 3.21213 9.8703 3.46046 9.29352 3.75366L7.30797 2.47719C6.9532 2.24922 6.48743 2.29935 6.18942 2.59735L2.59735 6.18942C2.29935 6.48743 2.24922 6.9532 2.47719 7.30797L3.75366 9.29352C3.46046 9.8703 3.21213 10.4691 3.01163 11.0829L0.705872 11.5842C0.293884 11.6739 0 12.0385 0 12.4601V17.5399C0 17.9615 0.293884 18.3261 0.705872 18.4158L3.01163 18.9171C3.21213 19.5309 3.46046 20.1297 3.75366 20.7065L2.47719 22.692C2.24922 23.0468 2.29935 23.5126 2.59735 23.8106L6.18942 27.4026C6.48743 27.7007 6.9532 27.7508 7.30797 27.5228L9.29352 26.2463C9.8703 26.5395 10.4691 26.7879 11.0829 26.9884L11.5842 29.2941C11.6737 29.7061 12.0385 30 12.4601 30H17.5399C17.9615 30 18.3263 29.7061 18.4158 29.2941L18.9171 26.9884C19.5309 26.7879 20.1297 26.5395 20.7065 26.2463L22.692 27.5228C23.0468 27.7508 23.5126 27.7009 23.8106 27.4026L27.4026 23.8106C27.7007 23.5126 27.7508 23.0468 27.5228 22.692L26.2463 20.7065C26.5395 20.1297 26.7879 19.5309 26.9884 18.9171L29.2941 18.4158C29.7061 18.3261 30 17.9615 30 17.5399V12.4601C30 12.0385 29.7061 11.6739 29.2941 11.5842ZM20.3785 15C20.3785 17.9656 17.9656 20.3785 15 20.3785C12.0344 20.3785 9.62151 17.9656 9.62151 15C9.62151 12.0344 12.0344 9.62151 15 9.62151C17.9656 9.62151 20.3785 12.0344 20.3785 15Z" fill="#929292"/>
</svg>
