<svg width="416" height="512" viewBox="0 0 416 512" fill="none" xmlns="http://www.w3.org/2000/svg">
<path d="M376 64H288V48C288 21.49 266.51 0 240 0H176C149.49 0 128 21.49 128 48V64H40C17.909 64 0 81.909 0 104V136C0 144.837 7.163 152 16 152H400C408.837 152 416 144.837 416 136V104C416 81.909 398.091 64 376 64ZM160 48C160 39.18 167.18 32 176 32H240C248.82 32 256 39.18 256 48V64H160V48Z" fill="white"/>
<path d="M30.364 184C27.509 184 25.234 186.386 25.37 189.238L38.57 466.28C39.79 491.92 60.85 512 86.51 512H329.49C355.15 512 376.21 491.92 377.43 466.28L390.63 189.238C390.766 186.386 388.491 184 385.636 184H30.364ZM272 224C272 215.16 279.16 208 288 208C296.84 208 304 215.16 304 224V432C304 440.84 296.84 448 288 448C279.16 448 272 440.84 272 432V224ZM192 224C192 215.16 199.16 208 208 208C216.84 208 224 215.16 224 224V432C224 440.84 216.84 448 208 448C199.16 448 192 440.84 192 432V224ZM112 224C112 215.16 119.16 208 128 208C136.84 208 144 215.16 144 224V432C144 440.84 136.84 448 128 448C119.16 448 112 440.84 112 432V224Z" fill="white"/>
</svg>
