<svg width="28" height="28" viewBox="0 0 28 28" fill="none" xmlns="http://www.w3.org/2000/svg">
<path d="M14.3819 0.413147C6.86198 0.413147 0.763794 6.51133 0.763794 14.0312C0.763794 21.5512 6.86198 27.6493 14.3819 27.6493C21.9018 27.6493 28 21.5512 28 14.0312C28 6.51133 21.9018 0.413147 14.3819 0.413147ZM20.5998 11.0311C20.6058 11.1651 20.6087 11.2998 20.6087 11.435C20.6087 15.5654 17.4648 20.3283 11.7153 20.3285H11.7155H11.7153C9.95003 20.3285 8.3074 19.8111 6.92411 18.9244C7.16868 18.9533 7.41762 18.9676 7.66968 18.9676C9.13422 18.9676 10.482 18.4681 11.5519 17.6296C10.1836 17.6043 9.02991 16.7006 8.63177 15.4586C8.82232 15.4952 9.01827 15.5151 9.21921 15.5151C9.50451 15.5151 9.78088 15.4767 10.0435 15.405C8.61328 15.1186 7.53586 13.8546 7.53586 12.341C7.53586 12.3269 7.53586 12.3142 7.53627 12.3011C7.95747 12.5353 8.43915 12.6762 8.95198 12.692C8.1127 12.132 7.561 11.1747 7.561 10.0902C7.561 9.51751 7.71581 8.98098 7.98428 8.51905C9.52571 10.4104 11.8293 11.6543 14.4272 11.785C14.3736 11.556 14.3459 11.3174 14.3459 11.0722C14.3459 9.3467 15.7459 7.94678 17.472 7.94678C18.3712 7.94678 19.1832 8.32684 19.7536 8.93443C20.4657 8.79396 21.1344 8.5338 21.7385 8.17577C21.5047 8.90534 21.0093 9.51751 20.3639 9.90463C20.9962 9.82899 21.5988 9.6613 22.1589 9.41236C21.7406 10.0393 21.2101 10.5899 20.5998 11.0311Z" fill="#009FE3"/>
</svg>
