<svg width="106" height="106" viewBox="0 0 106 106" fill="none" xmlns="http://www.w3.org/2000/svg">
<path d="M100.824 92.0898H99.5102V66.4487C99.5102 65.5912 98.8152 64.896 97.9575 64.896C97.0997 64.896 96.4047 65.5912 96.4047 66.4487V92.09H63.4652V49.8805H95.1358C95.8356 49.8805 96.4049 50.4498 96.4049 51.1493V59.1335C96.4049 59.991 97.0999 60.6862 97.9577 60.6862C98.8154 60.6862 99.5104 59.991 99.5104 59.1335V51.1493C99.5104 48.7372 97.5479 46.775 95.1358 46.775H63.4652V18.5579C63.4652 16.2985 61.7073 14.3903 59.4588 14.2001V11.0853C59.4588 8.81705 57.6874 6.90139 55.426 6.72417L15.2122 3.57232C12.673 3.37171 10.4961 5.3855 10.4961 7.93344V10.4201C8.19326 10.6168 6.48981 12.543 6.48981 14.7781V92.0896H5.17578C2.32186 92.0896 0 94.4114 0 97.2654C0 100.119 2.32186 102.441 5.17578 102.441H100.824C103.678 102.441 106 100.119 106 97.2654C106 94.4114 103.678 92.0898 100.824 92.0898V92.0898ZM13.6015 7.93364C13.6015 7.18999 14.2344 6.6103 14.9698 6.66848L55.1836 9.82011C55.8394 9.87166 56.3533 10.4273 56.3533 11.0853V13.9554L13.6013 10.6048V7.93364H13.6015ZM9.59528 14.7783C9.59528 14.0286 10.2365 13.4535 10.9633 13.5131L59.1896 17.2927C59.8457 17.3442 60.3595 17.8999 60.3595 18.5579V92.0898H56.0208V69.8588C56.0208 68.4456 54.8711 67.2959 53.458 67.2959H39.032C37.6188 67.2959 36.4692 68.4456 36.4692 69.8588V79.9315C36.4692 80.789 37.1644 81.4842 38.0219 81.4842C38.8794 81.4842 39.5746 80.789 39.5746 79.9315V70.4014H52.9153V92.0898H39.5746V87.1906C39.5746 86.3331 38.8794 85.6379 38.0219 85.6379C37.1644 85.6379 36.4692 86.3331 36.4692 87.1906V92.0898H9.59528V14.7783ZM100.824 99.3359H5.17578C4.03421 99.3359 3.10547 98.4071 3.10547 97.2656C3.10547 96.124 4.03421 95.1952 5.17578 95.1952H100.824C101.966 95.1952 102.895 96.124 102.895 97.2656C102.895 98.4071 101.966 99.3359 100.824 99.3359Z" fill="url(#paint0_linear)"/>
<path d="M15.7147 33.7343H21.9998C23.4773 33.7343 24.6794 32.5323 24.6794 31.0549V26.2193C24.6794 24.7419 23.4773 23.5399 21.9998 23.5399H15.7147C14.2373 23.5399 13.0353 24.7419 13.0353 26.2193V31.0549C13.0353 32.5323 14.2373 33.7343 15.7147 33.7343ZM16.1408 26.6451H21.5741V30.6288H16.1408V26.6451Z" fill="url(#paint1_linear)"/>
<path d="M31.3857 33.7343H37.6708C39.1482 33.7343 40.3502 32.5323 40.3502 31.0549V26.2193C40.3502 24.7419 39.1482 23.5399 37.6708 23.5399H31.3857C29.9084 23.5399 28.7063 24.7419 28.7063 26.2193V31.0549C28.7061 32.5323 29.9081 33.7343 31.3857 33.7343ZM31.8116 26.6451H37.2447V30.6288H31.8116V26.6451Z" fill="url(#paint2_linear)"/>
<path d="M47.0566 33.7343H53.3416C54.8192 33.7343 56.021 32.5323 56.021 31.0549V26.2193C56.021 24.7419 54.819 23.5399 53.3416 23.5399H47.0566C45.5792 23.5399 44.3772 24.7419 44.3772 26.2193V31.0549C44.377 32.5323 45.579 33.7343 47.0566 33.7343V33.7343ZM47.4824 26.6451H52.9155V30.6288H47.4824V26.6451Z" fill="url(#paint3_linear)"/>
<path d="M15.7147 47.6959H21.9998C23.4773 47.6959 24.6794 46.4938 24.6794 45.0165V40.1806C24.6794 38.7032 23.4773 37.5012 21.9998 37.5012H15.7147C14.2373 37.5012 13.0353 38.7032 13.0353 40.1806V45.0162C13.0353 46.4938 14.2373 47.6959 15.7147 47.6959ZM16.1408 40.6067H21.5741V44.5904H16.1408V40.6067Z" fill="url(#paint4_linear)"/>
<path d="M31.3857 47.6959H37.6708C39.1482 47.6959 40.3502 46.4938 40.3502 45.0165V40.1806C40.3502 38.7032 39.1482 37.5012 37.6708 37.5012H31.3857C29.9084 37.5012 28.7063 38.7032 28.7063 40.1806V45.0162C28.7061 46.4938 29.9081 47.6959 31.3857 47.6959ZM31.8116 40.6067H37.2447V44.5904H31.8116V40.6067Z" fill="url(#paint5_linear)"/>
<path d="M47.0566 47.6959H53.3416C54.8192 47.6959 56.021 46.4938 56.021 45.0165V40.1806C56.021 38.7032 54.819 37.5012 53.3416 37.5012H47.0566C45.5792 37.5012 44.3772 38.7032 44.3772 40.1806V45.0162C44.377 46.4938 45.579 47.6959 47.0566 47.6959V47.6959ZM47.4824 40.6067H52.9155V44.5904H47.4824V40.6067Z" fill="url(#paint6_linear)"/>
<path d="M15.7147 61.6572H21.9998C23.4773 61.6572 24.6794 60.4552 24.6794 58.9778V54.1422C24.6794 52.6649 23.4773 51.4628 21.9998 51.4628H15.7147C14.2373 51.4628 13.0353 52.6649 13.0353 54.1422V58.9778C13.0353 60.4552 14.2373 61.6572 15.7147 61.6572V61.6572ZM16.1408 54.5681H21.5741V58.5518H16.1408V54.5681Z" fill="url(#paint7_linear)"/>
<path d="M29.9266 67.2959H16.0166C14.3727 67.2959 13.0353 68.6333 13.0353 70.2771V74.5093C13.0353 76.1531 14.3727 77.4905 16.0166 77.4905H29.9266C31.5704 77.4905 32.9078 76.1531 32.9078 74.5093V70.2771C32.9078 68.6333 31.5704 67.2959 29.9266 67.2959ZM29.8024 74.3851H16.1408V70.4014H29.8024V74.3851Z" fill="url(#paint8_linear)"/>
<path d="M31.3857 61.6572H37.6708C39.1482 61.6572 40.3502 60.4552 40.3502 58.9778V54.1422C40.3502 52.6649 39.1482 51.4628 37.6708 51.4628H31.3857C29.9084 51.4628 28.7063 52.6649 28.7063 54.1422V58.9778C28.7061 60.4552 29.9081 61.6572 31.3857 61.6572V61.6572ZM31.8116 54.5681H37.2447V58.5518H31.8116V54.5681Z" fill="url(#paint9_linear)"/>
<path d="M47.0566 61.6572H53.3416C54.8192 61.6572 56.021 60.4552 56.021 58.9778V54.1422C56.021 52.6649 54.819 51.4628 53.3416 51.4628H47.0566C45.5792 51.4628 44.3772 52.6649 44.3772 54.1422V58.9778C44.377 60.4552 45.579 61.6572 47.0566 61.6572V61.6572ZM47.4824 54.5681H52.9155V58.5518H47.4824V54.5681Z" fill="url(#paint10_linear)"/>
<path d="M78.7905 60.3076C78.7905 58.7327 77.5092 57.4512 75.9341 57.4512H69.5932C68.0183 57.4512 66.7368 58.7325 66.7368 60.3076V65.337C66.7368 66.9119 68.0181 68.1934 69.5932 68.1934H75.9341C77.509 68.1934 78.7905 66.9121 78.7905 65.337V60.3076ZM75.6851 65.0879H69.8422V60.5566H75.6851V65.0879Z" fill="url(#paint11_linear)"/>
<path d="M75.9341 71.7812H69.5932C68.0183 71.7812 66.7368 73.0626 66.7368 74.6377V79.6671C66.7368 81.242 68.0181 82.5235 69.5932 82.5235H75.9341C77.509 82.5235 78.7905 81.2422 78.7905 79.6671V74.6377C78.7905 73.0626 77.5092 71.7812 75.9341 71.7812ZM75.6851 79.418H69.8422V74.8867H75.6851V79.418Z" fill="url(#paint12_linear)"/>
<path d="M93.233 60.3076C93.233 58.7327 91.9517 57.4512 90.3766 57.4512H84.0359C82.461 57.4512 81.1794 58.7325 81.1794 60.3076V65.337C81.1794 66.9119 82.4608 68.1934 84.0359 68.1934H90.3766C91.9515 68.1934 93.233 66.9121 93.233 65.337V60.3076ZM90.1275 65.0879H84.2849V60.5566H90.1275V65.0879Z" fill="url(#paint13_linear)"/>
<path d="M90.3766 71.7812H84.0359C82.461 71.7812 81.1794 73.0626 81.1794 74.6377V79.6671C81.1794 81.242 82.4608 82.5235 84.0359 82.5235H90.3766C91.9515 82.5235 93.233 81.2422 93.233 79.6671V74.6377C93.233 73.0626 91.9517 71.7812 90.3766 71.7812ZM90.1275 79.418H84.2849V74.8867H90.1275V79.418Z" fill="url(#paint14_linear)"/>
<defs>
<linearGradient id="paint0_linear" x1="53" y1="3.55853" x2="53" y2="102.441" gradientUnits="userSpaceOnUse">
<stop stop-color="#FF9250"/>
<stop offset="1" stop-color="#FFA873"/>
</linearGradient>
<linearGradient id="paint1_linear" x1="18.8573" y1="23.5399" x2="18.8573" y2="33.7343" gradientUnits="userSpaceOnUse">
<stop stop-color="#FF9250"/>
<stop offset="1" stop-color="#FFA873"/>
</linearGradient>
<linearGradient id="paint2_linear" x1="34.5283" y1="23.5399" x2="34.5283" y2="33.7343" gradientUnits="userSpaceOnUse">
<stop stop-color="#FF9250"/>
<stop offset="1" stop-color="#FFA873"/>
</linearGradient>
<linearGradient id="paint3_linear" x1="50.1991" y1="23.5399" x2="50.1991" y2="33.7343" gradientUnits="userSpaceOnUse">
<stop stop-color="#FF9250"/>
<stop offset="1" stop-color="#FFA873"/>
</linearGradient>
<linearGradient id="paint4_linear" x1="18.8573" y1="37.5012" x2="18.8573" y2="47.6959" gradientUnits="userSpaceOnUse">
<stop stop-color="#FF9250"/>
<stop offset="1" stop-color="#FFA873"/>
</linearGradient>
<linearGradient id="paint5_linear" x1="34.5283" y1="37.5012" x2="34.5283" y2="47.6959" gradientUnits="userSpaceOnUse">
<stop stop-color="#FF9250"/>
<stop offset="1" stop-color="#FFA873"/>
</linearGradient>
<linearGradient id="paint6_linear" x1="50.1991" y1="37.5012" x2="50.1991" y2="47.6959" gradientUnits="userSpaceOnUse">
<stop stop-color="#FF9250"/>
<stop offset="1" stop-color="#FFA873"/>
</linearGradient>
<linearGradient id="paint7_linear" x1="18.8573" y1="51.4628" x2="18.8573" y2="61.6572" gradientUnits="userSpaceOnUse">
<stop stop-color="#FF9250"/>
<stop offset="1" stop-color="#FFA873"/>
</linearGradient>
<linearGradient id="paint8_linear" x1="22.9716" y1="67.2959" x2="22.9716" y2="77.4905" gradientUnits="userSpaceOnUse">
<stop stop-color="#FF9250"/>
<stop offset="1" stop-color="#FFA873"/>
</linearGradient>
<linearGradient id="paint9_linear" x1="34.5283" y1="51.4628" x2="34.5283" y2="61.6572" gradientUnits="userSpaceOnUse">
<stop stop-color="#FF9250"/>
<stop offset="1" stop-color="#FFA873"/>
</linearGradient>
<linearGradient id="paint10_linear" x1="50.1991" y1="51.4628" x2="50.1991" y2="61.6572" gradientUnits="userSpaceOnUse">
<stop stop-color="#FF9250"/>
<stop offset="1" stop-color="#FFA873"/>
</linearGradient>
<linearGradient id="paint11_linear" x1="72.7636" y1="57.4512" x2="72.7636" y2="68.1934" gradientUnits="userSpaceOnUse">
<stop stop-color="#FF9250"/>
<stop offset="1" stop-color="#FFA873"/>
</linearGradient>
<linearGradient id="paint12_linear" x1="72.7636" y1="71.7812" x2="72.7636" y2="82.5235" gradientUnits="userSpaceOnUse">
<stop stop-color="#FF9250"/>
<stop offset="1" stop-color="#FFA873"/>
</linearGradient>
<linearGradient id="paint13_linear" x1="87.2062" y1="57.4512" x2="87.2062" y2="68.1934" gradientUnits="userSpaceOnUse">
<stop stop-color="#FF9250"/>
<stop offset="1" stop-color="#FFA873"/>
</linearGradient>
<linearGradient id="paint14_linear" x1="87.2062" y1="71.7812" x2="87.2062" y2="82.5235" gradientUnits="userSpaceOnUse">
<stop stop-color="#FF9250"/>
<stop offset="1" stop-color="#FFA873"/>
</linearGradient>
</defs>
</svg>
