<svg width="99" height="99" viewBox="0 0 99 99" fill="none" xmlns="http://www.w3.org/2000/svg">
<path d="M49.5 0C22.2046 0 0 22.2046 0 49.5C0 76.7954 22.2046 99 49.5 99C76.7954 99 99 76.7954 99 49.5C99 22.2046 76.7954 0 49.5 0ZM74.5884 39.0103L47.7756 65.8223C46.9712 66.6267 45.9153 67.0315 44.8594 67.0315C43.8035 67.0315 42.7475 66.6267 41.9431 65.8223L28.5371 52.4163C26.9238 50.8037 26.9238 48.1963 28.5371 46.5837C30.1497 44.9704 32.7563 44.9704 34.3696 46.5837L44.8594 57.0735L68.7559 33.1777C70.3685 31.5644 72.975 31.5644 74.5884 33.1777C76.201 34.7903 76.201 37.3969 74.5884 39.0103Z" fill="url(#paint0_linear)"/>
<defs>
<linearGradient id="paint0_linear" x1="49.5" y1="0" x2="49.5" y2="99" gradientUnits="userSpaceOnUse">
<stop stop-color="#23AB0D"/>
<stop offset="1" stop-color="#2BD90E"/>
</linearGradient>
</defs>
</svg>
