<svg width="28" height="28" viewBox="0 0 28 28" fill="none" xmlns="http://www.w3.org/2000/svg">
<g clip-path="url(#clip0)">
<path d="M27.2362 14.0312C27.2362 6.50938 21.14 0.413147 13.6181 0.413147C6.09623 0.413147 0 6.50938 0 14.0312C0 21.5531 6.09623 27.6493 13.6181 27.6493C13.6979 27.6493 13.7777 27.6493 13.8575 27.644V17.0474H10.9317V13.6376H13.8575V11.1268C13.8575 8.21696 15.6342 6.63173 18.2302 6.63173C19.4749 6.63173 20.5442 6.72216 20.8527 6.76471V9.80751H19.0653C17.6557 9.80751 17.379 10.4778 17.379 11.4619V13.6323H20.757L20.3154 17.0421H17.379V27.1227C23.071 25.4896 27.2362 20.2498 27.2362 14.0312Z" fill="#009FE3"/>
</g>
<defs>
<clipPath id="clip0">
<rect width="27.2362" height="27.2362" fill="white" transform="translate(0 0.413147)"/>
</clipPath>
</defs>
</svg>
