<svg width="110" height="110" viewBox="0 0 110 110" fill="none" xmlns="http://www.w3.org/2000/svg">
<g clip-path="url(#clip0)">
<path d="M86.6238 5.80641C83.8872 3.23071 80.3848 1.9939 76.855 1.9939C72.8815 1.9939 68.8687 3.56052 65.8768 6.55635L64.5929 7.84028L63.309 6.55242C60.3171 3.56052 56.3043 1.9939 52.3308 1.9939C48.801 1.9939 45.2987 3.23071 42.562 5.80641C36.5429 11.4722 36.4368 20.9505 42.24 26.7537L64.5929 49.1065L86.9458 26.7537C92.749 20.9505 92.643 11.4722 86.6238 5.80641Z" fill="url(#paint0_linear)"/>
<path d="M108.564 60.489C105.129 58.1607 101.081 58.8203 97.496 60.8895C93.9112 62.9587 73.3291 80.5568 73.3291 80.5568L53.069 80.5607C52.1266 80.5607 51.1058 79.5006 51.1058 78.5621C51.1058 77.4588 52.0677 76.599 53.069 76.599H65.4645C69.8032 76.599 74.6601 73.772 74.6601 68.7462C74.6601 63.4063 69.8032 60.8934 65.4645 60.8934C57.9377 60.8934 56.4731 60.9249 56.4731 60.9249C53.4577 60.9249 50.399 60.7442 48.0432 59.4839C44.9021 57.8741 41.282 56.9631 37.4184 56.9631C30.932 56.9631 25.1249 59.5506 21.1436 63.6301L0 84.4478L23.5583 108.006L31.411 100.153H71.1735C75.1313 100.153 78.9517 98.7006 81.9082 96.0738L108.831 65.8721C110.477 64.4115 110.382 61.7258 108.564 60.489Z" fill="url(#paint1_linear)"/>
</g>
<defs>
<linearGradient id="paint0_linear" x1="64.5929" y1="1.9939" x2="64.5929" y2="49.1065" gradientUnits="userSpaceOnUse">
<stop stop-color="#FF9250"/>
<stop offset="1" stop-color="#FFA873"/>
</linearGradient>
<linearGradient id="paint1_linear" x1="55.0001" y1="56.9631" x2="55.0001" y2="108.006" gradientUnits="userSpaceOnUse">
<stop stop-color="#FF9250"/>
<stop offset="1" stop-color="#FFA873"/>
</linearGradient>
<clipPath id="clip0">
<rect width="110" height="110" fill="white"/>
</clipPath>
</defs>
</svg>
