<svg width="26" height="26" viewBox="0 0 26 26" fill="none" xmlns="http://www.w3.org/2000/svg">
<g clip-path="url(#clip0)">
<path d="M25.5634 11.6229L13.898 0.993513C13.386 0.526885 12.6138 0.526936 12.102 0.993462L0.436604 11.623C0.026444 11.9967 -0.10904 12.5726 0.0913424 13.09C0.291776 13.6074 0.779783 13.9417 1.33467 13.9417H3.19783V24.5916C3.19783 25.0138 3.5402 25.3562 3.96245 25.3562H10.3565C10.7788 25.3562 11.1211 25.0139 11.1211 24.5916V18.1253H14.879V24.5916C14.879 25.0139 15.2214 25.3562 15.6436 25.3562H22.0374C22.4597 25.3562 22.802 25.0139 22.802 24.5916V13.9417H24.6655C25.2204 13.9417 25.7084 13.6073 25.9089 13.09C26.109 12.5725 25.9735 11.9967 25.5634 11.6229Z" fill="#FF9250"/>
<path d="M22.6023 2.16992H17.4673L23.3669 7.53424V2.93448C23.3669 2.51224 23.0246 2.16992 22.6023 2.16992Z" fill="#FF9250"/>
</g>
<defs>
<clipPath id="clip0">
<rect width="26" height="26" fill="white"/>
</clipPath>
</defs>
</svg>
