<svg width="28" height="28" viewBox="0 0 28 28" fill="none" xmlns="http://www.w3.org/2000/svg">
<path d="M16.3417 14.0313C16.3417 15.5355 15.1224 16.7549 13.6181 16.7549C12.1139 16.7549 10.8945 15.5355 10.8945 14.0313C10.8945 12.527 12.1139 11.3076 13.6181 11.3076C15.1224 11.3076 16.3417 12.527 16.3417 14.0313Z" fill="#009FE3"/>
<path d="M19.6612 9.45939C19.5369 9.1228 19.3388 8.81814 19.0813 8.56807C18.8312 8.31058 18.5268 8.11242 18.19 7.98821C17.9168 7.88212 17.5065 7.75585 16.7507 7.72145C15.9331 7.68417 15.688 7.67613 13.6182 7.67613C11.5482 7.67613 11.3031 7.68396 10.4857 7.72124C9.72994 7.75585 9.3194 7.88212 9.04647 7.98821C8.70967 8.11242 8.40501 8.31058 8.15514 8.56807C7.89766 8.81814 7.69949 9.1226 7.57508 9.45939C7.46899 9.73253 7.34272 10.1431 7.30832 10.8989C7.27103 11.7162 7.263 11.9614 7.263 14.0313C7.263 16.1011 7.27103 16.3463 7.30832 17.1638C7.34272 17.9196 7.46899 18.33 7.57508 18.6031C7.69949 18.9399 7.89745 19.2443 8.15494 19.4944C8.40501 19.7519 8.70947 19.9501 9.04626 20.0743C9.3194 20.1806 9.72994 20.3068 10.4857 20.3412C11.3031 20.3785 11.548 20.3864 13.618 20.3864C15.6882 20.3864 15.9333 20.3785 16.7505 20.3412C17.5063 20.3068 17.9168 20.1806 18.19 20.0743C18.866 19.8135 19.4004 19.2792 19.6612 18.6031C19.7672 18.33 19.8935 17.9196 19.9281 17.1638C19.9654 16.3463 19.9732 16.1011 19.9732 14.0313C19.9732 11.9614 19.9654 11.7162 19.9281 10.8989C19.8937 10.1431 19.7674 9.73253 19.6612 9.45939ZM13.6182 18.0117C11.4197 18.0117 9.63745 16.2297 9.63745 14.0311C9.63745 11.8326 11.4197 10.0506 13.6182 10.0506C15.8165 10.0506 17.5988 11.8326 17.5988 14.0311C17.5988 16.2297 15.8165 18.0117 13.6182 18.0117ZM17.7562 10.8235C17.2424 10.8235 16.8259 10.4069 16.8259 9.89321C16.8259 9.37947 17.2424 8.96295 17.7562 8.96295C18.2699 8.96295 18.6864 9.37947 18.6864 9.89321C18.6862 10.4069 18.2699 10.8235 17.7562 10.8235Z" fill="#009FE3"/>
<path d="M13.6181 0.413147C6.09818 0.413147 0 6.51133 0 14.0312C0 21.5512 6.09818 27.6493 13.6181 27.6493C21.138 27.6493 27.2362 21.5512 27.2362 14.0312C27.2362 6.51133 21.138 0.413147 13.6181 0.413147ZM21.3907 17.2552C21.3529 18.0876 21.2205 18.656 21.0273 19.1534C20.621 20.2038 19.7907 21.0342 18.7403 21.4404C18.243 21.6337 17.6745 21.7658 16.8423 21.8038C16.0084 21.8419 15.742 21.851 13.6183 21.851C11.4944 21.851 11.2282 21.8419 10.3942 21.8038C9.56193 21.7658 8.9934 21.6337 8.49614 21.4404C7.97416 21.244 7.50163 20.9363 7.11098 20.5384C6.71326 20.1479 6.40551 19.6752 6.20914 19.1534C6.01589 18.6562 5.88353 18.0876 5.84571 17.2554C5.80727 16.4213 5.79833 16.1549 5.79833 14.0312C5.79833 11.9076 5.80727 11.6412 5.8455 10.8073C5.88332 9.97487 6.01548 9.40655 6.20873 8.90908C6.4051 8.38731 6.71305 7.91457 7.11098 7.52412C7.50143 7.1262 7.97416 6.81845 8.49594 6.62208C8.9934 6.42883 9.56172 6.29668 10.3942 6.25865C11.228 6.22062 11.4944 6.21148 13.6181 6.21148C15.7418 6.21148 16.0082 6.22062 16.8421 6.25886C17.6745 6.29668 18.2428 6.42883 18.7403 6.62188C19.262 6.81824 19.7348 7.1262 20.1254 7.52412C20.5232 7.91478 20.8311 8.38731 21.0273 8.90908C21.2207 9.40655 21.3529 9.97487 21.3909 10.8073C21.4289 11.6412 21.4379 11.9076 21.4379 14.0312C21.4379 16.1549 21.4289 16.4213 21.3907 17.2552Z" fill="#009FE3"/>
</svg>
