<svg width="28" height="28" viewBox="0 0 28 28" fill="none" xmlns="http://www.w3.org/2000/svg">
<path d="M13.6181 0C6.09818 0 0 6.09818 0 13.6181C0 21.138 6.09818 27.2362 13.6181 27.2362C21.138 27.2362 27.2362 21.138 27.2362 13.6181C27.2362 6.09818 21.138 0 13.6181 0ZM9.66084 20.5867H6.34421V10.6086H9.66084V20.5867ZM8.00263 9.24608H7.98102C6.86806 9.24608 6.14826 8.47994 6.14826 7.52241C6.14826 6.54328 6.89009 5.79833 8.02466 5.79833C9.15922 5.79833 9.85741 6.54328 9.87902 7.52241C9.87902 8.47994 9.15922 9.24608 8.00263 9.24608ZM21.6199 20.5867H18.3037V15.2487C18.3037 13.9071 17.8235 12.9922 16.6235 12.9922C15.7073 12.9922 15.1616 13.6094 14.9218 14.2051C14.8341 14.4183 14.8127 14.7163 14.8127 15.0145V20.5867H11.4963C11.4963 20.5867 11.5397 11.5447 11.4963 10.6086H14.8127V12.0214C15.2535 11.3415 16.042 10.3744 17.8017 10.3744C19.9837 10.3744 21.6199 11.8005 21.6199 14.8653V20.5867Z" fill="#009FE3"/>
</svg>
