<svg width="32" height="22" viewBox="0 0 32 22" fill="none" xmlns="http://www.w3.org/2000/svg">
<path d="M29.1875 0.0380859H2.8125C1.26169 0.0380859 0 1.29977 0 2.85059V19.1495C0 20.7003 1.26169 21.962 2.8125 21.962H29.1875C30.7383 21.962 32 20.7003 32 19.1495V2.85059C32 1.29977 30.7383 0.0380859 29.1875 0.0380859ZM28.8204 1.91309L28.4451 2.22565L17.1159 11.6595C16.4692 12.1978 15.5306 12.1978 14.8841 11.6595L3.55494 2.22565L3.17956 1.91309H28.8204ZM1.875 3.26671L11.1058 10.9531L1.875 17.0965V3.26671ZM29.1875 20.087H2.8125C2.3595 20.087 1.98063 19.764 1.89381 19.3363L12.6091 12.205L13.6844 13.1003C14.3552 13.659 15.1777 13.9383 16.0001 13.9383C16.8224 13.9383 17.6448 13.659 18.3158 13.1003L19.391 12.205L30.1063 19.3362C30.0194 19.764 29.6405 20.087 29.1875 20.087ZM30.125 17.0965L20.8943 10.9532L30.125 3.26671V17.0965Z" fill="#FF9250"/>
</svg>
