<svg width="107" height="107" viewBox="0 0 107 107" fill="none" xmlns="http://www.w3.org/2000/svg">
<g clip-path="url(#clip0)">
<path d="M58.8609 39.8238C68.9461 37.1241 75.8483 29.4252 75.8483 20.625C75.8483 15.1375 73.2131 10.0076 68.4285 6.18137C63.7819 2.46455 57.6307 0.417969 51.1089 0.417969C44.5863 0.417969 38.4352 2.46455 33.7885 6.18137C29.0047 10.0076 26.3696 15.1375 26.3696 20.625C26.3696 25.6071 28.5982 30.3893 32.6448 34.0889C36.2865 37.4188 41.1789 39.667 46.5227 40.4842C49.1652 45.441 52.4779 48.953 56.3801 50.9318C57.847 51.6755 59.6014 50.4452 59.4128 48.8191C59.4079 48.7742 58.945 44.7374 58.8609 39.8238V39.8238ZM56.3286 36.1118C55.3539 36.3119 54.6535 37.1682 54.6518 38.1633C54.6478 40.6042 54.7449 42.903 54.8617 44.7725C52.9514 42.9928 51.2452 40.6001 49.766 37.618C49.4501 36.9804 48.8313 36.5461 48.1244 36.4661C38.1143 35.3249 30.5656 28.5149 30.5656 20.625C30.5656 11.7962 39.7813 4.61398 51.1089 4.61398C62.4365 4.61398 71.6514 11.7962 71.6514 20.625C71.6522 27.8929 65.3509 34.2612 56.3286 36.1118V36.1118Z" fill="url(#paint0_linear)"/>
<path d="M53.051 19.2258C52.7269 18.4405 51.9367 17.9254 51.0893 17.9319C50.2085 17.9384 49.4126 18.5229 49.1277 19.354C48.8403 20.1932 49.1326 21.154 49.8371 21.692C50.5302 22.221 51.5 22.265 52.2379 21.7989C53.0869 21.2618 53.4347 20.1548 53.051 19.2258Z" fill="url(#paint1_linear)"/>
<path d="M46.8615 18.2837C46.1439 17.8094 45.1888 17.8233 44.4851 18.3172C43.7659 18.8217 43.4385 19.7621 43.681 20.6046C43.9243 21.4487 44.6892 22.065 45.5651 22.1213C46.4525 22.1777 47.2925 21.6495 47.6337 20.8307C48.0125 19.9237 47.6852 18.8282 46.8615 18.2837Z" fill="url(#paint2_linear)"/>
<path d="M57.6944 18.2837C56.9752 17.8094 56.0217 17.8241 55.318 18.3172C54.5972 18.8217 54.2723 19.7613 54.5147 20.6046C54.7563 21.4487 55.5213 22.065 56.3972 22.1213C57.283 22.1777 58.1279 21.6495 58.4683 20.8307C58.8454 19.9237 58.5173 18.8274 57.6944 18.2837V18.2837Z" fill="url(#paint3_linear)"/>
<path d="M44.1439 76.9332C46.1113 73.1184 46.4745 68.7657 45.1684 64.6774L41.6654 53.7147C40.7242 50.771 38.9674 48.1766 36.5845 46.2141C32.3436 42.7202 26.6929 41.6303 21.4682 43.2998C17.38 44.6067 14.0452 47.4264 12.0778 51.2412C10.1113 55.0568 9.74716 59.4087 11.0533 63.497L14.5571 74.4605C15.1179 76.2156 15.9555 77.8067 17.0045 79.2034L16.6869 80.1561C6.94955 83.0141 0 93.0103 0 104.426C0 105.584 0.939613 106.524 2.09801 106.524H42.6246C43.7839 106.524 44.7227 105.584 44.7227 104.426C44.7227 96.5059 41.4107 89.158 35.8988 84.4566C39.4629 83.0174 42.3642 80.3847 44.1439 76.9332ZM15.8069 53.1645C17.2608 50.3465 19.7245 48.2623 22.745 47.2966C23.9361 46.9162 25.1565 46.7301 26.368 46.7301C28.5207 46.7301 30.6423 47.3186 32.5101 48.4534C31.2538 50.5955 29.7868 52.6151 28.0562 54.3988C26.3124 56.1948 24.2348 57.723 21.8829 58.6128C21.2013 58.8707 20.5058 59.0242 19.8045 59.2112C19.2274 59.3654 18.7335 59.7687 18.4682 60.3042C18.1898 60.8634 18.1784 61.5165 18.4306 62.0863C18.4388 62.1043 18.4437 62.1222 18.4519 62.1402C18.549 62.3451 18.6641 62.6129 18.7849 62.9263C19.4119 64.5664 20.2299 67.5942 19.4004 69.5787C19.109 70.2751 18.5784 70.8277 17.9139 71.1812L15.0501 62.2194C14.0852 59.1989 14.3538 55.9833 15.8069 53.1645V53.1645ZM29.1696 85.6224L28.4872 87.6689C28.4374 87.8175 28.3811 87.9628 28.3182 88.1041C27.8774 89.091 27.1157 89.8894 26.1361 90.3792C25.0161 90.9392 23.745 91.029 22.5573 90.6331C21.3695 90.2372 20.4062 89.402 19.847 88.282C19.287 87.162 19.1972 85.8909 19.5931 84.7032L20.3294 82.4958C20.3417 82.5047 20.3548 82.5129 20.367 82.5227C20.5033 82.6215 20.6405 82.7178 20.7793 82.8125C20.7972 82.8248 20.8152 82.8378 20.8331 82.8501C23.2797 84.5089 26.1647 85.4893 29.1696 85.6224V85.6224ZM40.436 102.328H4.28826C4.95522 94.7385 9.20184 88.1832 15.2061 85.2175C15.0183 86.9065 15.3342 88.6388 16.0934 90.158C17.1547 92.2805 18.9784 93.8634 21.2299 94.6136C23.4536 95.3557 25.9149 95.1801 28.0121 94.1328C30.1346 93.0715 31.7175 91.2478 32.4677 88.9971L32.9754 87.4747C37.1976 90.9686 39.916 96.3606 40.436 102.328V102.328ZM33.4767 80.8778C29.3239 82.2043 24.6455 81.077 21.5344 78.0279C20.6715 77.1822 19.94 76.2017 19.3743 75.1348C21.034 74.3805 22.4119 73.0931 23.1728 71.4261C24.3548 68.8367 23.9916 65.8162 23.4005 63.5713C23.3295 63.3019 23.225 63.0406 23.1573 62.7721C23.1507 62.7476 23.1483 62.7223 23.1491 62.697C23.1034 62.6333 23.1222 62.6006 23.2046 62.5998C23.2618 62.5565 23.3703 62.5386 23.4365 62.5125C23.5793 62.4578 23.7214 62.4006 23.8626 62.341C24.4748 62.0863 25.0732 61.7998 25.6561 61.4847C26.688 60.9279 27.6643 60.2659 28.5868 59.5442C30.4513 58.0862 32.0856 56.3376 33.5232 54.4617C34.3053 53.4412 35.031 52.3775 35.7045 51.282C36.5698 52.3849 37.236 53.638 37.6678 54.9915L41.1716 65.9542C43.1643 72.1902 39.7119 78.8851 33.4767 80.8778V80.8778Z" fill="url(#paint4_linear)"/>
<path d="M100.235 86.0542C101.266 84.2533 101.823 82.1986 101.823 80.1096C101.823 75.0817 98.7288 70.7126 94.1997 68.964L95.9467 63.4969C98.6439 55.0576 93.9719 45.997 85.5318 43.2997C81.4435 41.9928 77.0916 42.3569 73.2768 44.3243C69.462 46.2917 66.6415 49.6264 65.3346 53.7147L61.8316 64.6774C60.5255 68.7656 60.8887 73.1184 62.8561 76.9332C64.5803 80.2777 67.3566 82.8574 70.7706 84.3235C65.4137 89.06 62.2773 96.2381 62.2773 104.01C62.2773 105.168 63.217 106.108 64.3754 106.108H81.9104C83.0697 106.108 84.0085 105.168 84.0085 104.01C84.0085 102.851 83.0697 101.912 81.9104 101.912H66.5632C67.0113 96.701 69.1183 91.949 72.4808 88.4836C73.5903 91.4747 76.1332 93.8176 79.2043 94.6789C80.0835 94.9254 80.997 95.0511 81.9104 95.0511C87.4534 95.0511 91.9629 90.5416 91.9629 84.9987C91.9629 84.9627 91.9621 84.926 91.9597 84.8901C92.9336 85.3848 93.8715 85.9775 94.7581 86.6624C95.2112 87.0142 95.6495 87.3857 96.0691 87.7775C99.7566 91.2249 102.218 96.2822 102.713 101.912H98.6904C97.532 101.912 96.5924 102.851 96.5924 104.01C96.5924 105.168 97.532 106.108 98.6904 106.108H104.902C106.06 106.108 107 105.168 107 104.01C107 97.0691 104.433 90.6592 100.235 86.0542V86.0542ZM92.9197 72.9706C95.7279 74.1633 97.6267 76.9348 97.6267 80.1096C97.6267 81.161 97.4218 82.1749 97.0251 83.1154C95.9957 82.3472 94.9107 81.6761 93.785 81.1096C92.9515 80.6892 92.0895 80.3381 91.2111 80.0247C91.0029 79.9504 90.7915 79.8883 90.5817 79.8214C90.451 79.7806 90.3066 79.7741 90.2396 79.6606C90.1498 79.5087 90.1139 79.2957 90.0559 79.1291C91.1009 77.7185 91.9025 76.1527 92.4437 74.4596L92.9197 72.9706ZM75.1993 48.0533C78.0181 46.6002 81.2337 46.3317 84.255 47.2966C87.2755 48.2623 89.7392 50.3464 91.1931 53.1645C92.6462 55.9833 92.9148 59.1997 91.9499 62.2202C91.8764 62.4504 91.8331 62.7426 91.7156 62.9524C91.7033 62.9745 91.705 62.9982 91.6886 63.0129C91.6152 63.0798 91.3294 63.0806 91.229 63.0969C90.9466 63.1427 90.6625 63.1778 90.3776 63.2031C89.2053 63.3059 88.0167 63.2014 86.8942 62.8406C86.2803 62.6439 85.6885 62.3753 85.135 62.0463C80.0737 59.0405 78.3153 51.3799 78.2989 51.3065C78.0042 49.9628 76.4442 49.2476 75.2368 49.9203C74.765 50.1832 74.3903 50.6387 73.9723 50.9783C73.467 51.3889 72.9315 51.7661 72.3649 52.0861C71.7102 52.4551 70.9967 52.7587 70.2481 52.86C71.3731 50.8142 73.0784 49.148 75.1993 48.0533V48.0533ZM65.8284 65.955L68.684 57.0201C70.9649 57.3719 73.2645 56.5392 75.1666 55.3253C75.2042 55.4241 75.2425 55.5229 75.2809 55.6217C76.3356 58.327 78.2589 62.0561 81.4631 64.5982C83.4158 66.1476 85.766 67.1427 88.2534 67.3787C88.9294 67.4423 89.611 67.4538 90.2886 67.417C90.0396 68.1966 89.0796 71.2 88.8494 71.9224C88.54 72.889 88.2486 73.8547 87.8077 74.7723C87.3644 75.694 86.7889 76.5593 86.1195 77.3324C83.8868 79.9088 80.6149 81.428 77.1756 81.441C75.9405 81.4427 74.6997 81.2541 73.5233 80.8778C67.2881 78.8851 63.8357 72.1902 65.8284 65.955V65.955ZM81.9104 90.8551C79.6369 90.8551 77.5177 89.4837 76.5781 87.415C76.3177 86.8428 76.1495 86.2289 76.085 85.6036C76.6597 85.6428 77.2385 85.6477 77.814 85.6232C81.0419 85.4926 84.1611 84.3897 86.7612 82.4419L87.7579 85.3252C87.5873 88.4028 85.0297 90.8551 81.9104 90.8551Z" fill="url(#paint5_linear)"/>
<path d="M91.4616 102.264C90.7041 101.756 89.6714 101.808 88.9661 102.388C88.3179 102.922 88.0469 103.815 88.2918 104.618C88.5506 105.469 89.34 106.075 90.2289 106.107C91.1041 106.137 91.9278 105.592 92.2486 104.78C92.6078 103.869 92.2731 102.808 91.4616 102.264V102.264Z" fill="url(#paint6_linear)"/>
</g>
<defs>
<linearGradient id="paint0_linear" x1="51.1089" y1="0.417969" x2="51.1089" y2="51.1539" gradientUnits="userSpaceOnUse">
<stop stop-color="#FF9250"/>
<stop offset="1" stop-color="#FFA873"/>
</linearGradient>
<linearGradient id="paint1_linear" x1="51.1123" y1="17.9318" x2="51.1123" y2="22.1208" gradientUnits="userSpaceOnUse">
<stop stop-color="#FF9250"/>
<stop offset="1" stop-color="#FFA873"/>
</linearGradient>
<linearGradient id="paint2_linear" x1="45.6961" y1="17.9371" x2="45.6961" y2="22.1254" gradientUnits="userSpaceOnUse">
<stop stop-color="#FF9250"/>
<stop offset="1" stop-color="#FFA873"/>
</linearGradient>
<linearGradient id="paint3_linear" x1="56.5295" y1="17.9374" x2="56.5295" y2="22.1254" gradientUnits="userSpaceOnUse">
<stop stop-color="#FF9250"/>
<stop offset="1" stop-color="#FFA873"/>
</linearGradient>
<linearGradient id="paint4_linear" x1="22.9694" y1="42.5321" x2="22.9694" y2="106.524" gradientUnits="userSpaceOnUse">
<stop stop-color="#FF9250"/>
<stop offset="1" stop-color="#FFA873"/>
</linearGradient>
<linearGradient id="paint5_linear" x1="84.0306" y1="42.529" x2="84.0306" y2="106.108" gradientUnits="userSpaceOnUse">
<stop stop-color="#FF9250"/>
<stop offset="1" stop-color="#FFA873"/>
</linearGradient>
<linearGradient id="paint6_linear" x1="90.2973" y1="101.915" x2="90.2973" y2="106.108" gradientUnits="userSpaceOnUse">
<stop stop-color="#FF9250"/>
<stop offset="1" stop-color="#FFA873"/>
</linearGradient>
<clipPath id="clip0">
<rect width="107" height="107" fill="white"/>
</clipPath>
</defs>
</svg>
