<svg width="93" height="93" viewBox="0 0 93 93" fill="none" xmlns="http://www.w3.org/2000/svg">
<path d="M10.5598 38.87C13.5497 38.87 16.2504 37.0748 17.4069 34.3168C22.182 22.9399 33.4102 14.922 46.5 14.922C53.7145 14.922 60.3287 17.3948 65.6314 21.4961L61.4751 22.1396C60.0554 22.3597 58.951 23.486 58.7586 24.9096C58.5658 26.3323 59.3327 27.7128 60.6419 28.301L83.4985 38.5838C84.5004 39.0337 85.6611 38.9473 86.5845 38.3538C87.5064 37.7595 88.0665 36.7394 88.0726 35.6419L88.1911 10.4573C88.1991 9.02457 87.2652 7.75754 85.896 7.3399C84.5246 6.92227 83.043 7.45233 82.2496 8.64492L79.0992 13.3796C70.6997 5.11125 59.1903 0 46.5 0C27.2581 0 10.7144 11.7506 3.65852 28.4518C2.67857 30.7667 2.92556 33.4174 4.31303 35.5117C5.7005 37.6068 8.04579 38.87 10.5598 38.87Z" fill="url(#paint0_linear)"/>
<path d="M88.6872 57.4885C87.2996 55.3933 84.9541 54.1302 82.4403 54.1302C79.4504 54.1302 76.7497 55.9254 75.5932 58.6834C70.8179 70.0603 59.5897 78.0782 46.5001 78.0782C39.2854 78.0782 32.6712 75.6054 27.3683 71.5041L31.5248 70.861C32.9443 70.6409 34.0487 69.5144 34.2415 68.0907C34.4341 66.6681 33.6673 65.2875 32.3581 64.6992L9.50162 54.4164C8.49952 53.9667 7.33901 54.0528 6.41536 54.6464C5.49363 55.2408 4.93341 56.2608 4.92749 57.3581L4.80877 82.5427C4.80075 83.9755 5.73451 85.2425 7.10385 85.6601C8.47528 86.0778 9.95705 85.5475 10.7503 84.3547L13.9007 79.6201C22.3 87.8888 33.8095 93 46.4999 93C65.7422 93 82.2853 81.2496 89.341 64.5484C90.3215 62.2335 90.0745 59.583 88.6872 57.4885Z" fill="url(#paint1_linear)"/>
<defs>
<linearGradient id="paint0_linear" x1="45.6285" y1="0" x2="45.6285" y2="38.87" gradientUnits="userSpaceOnUse">
<stop stop-color="#FF9250"/>
<stop offset="1" stop-color="#FFA873"/>
</linearGradient>
<linearGradient id="paint1_linear" x1="47.3714" y1="54.1302" x2="47.3714" y2="93" gradientUnits="userSpaceOnUse">
<stop stop-color="#FF9250"/>
<stop offset="1" stop-color="#FFA873"/>
</linearGradient>
</defs>
</svg>
